<?xml version="1.0" encoding="utf-8"?>
<!-- Generator: Adobe Illustrator 21.0.2, SVG Export Plug-In . SVG Version: 6.00 Build 0)  -->
<svg version="1.1" id="Layer_1" xmlns="http://www.w3.org/2000/svg" xmlns:xlink="http://www.w3.org/1999/xlink" x="0px" y="0px"
	 viewBox="0 0 100 100" style="enable-background:new 0 0 100 100;" xml:space="preserve">
<style type="text/css">
	.st0{fill:#404141;}
</style>
<path id="ic_play_arrow_24px-10" class="st0" d="M157,22.7v62.7L206,54L157,22.7z"/>
<path id="ic_info_outline_24px-10" class="st0" d="M45.5,74.5h9.4V46.3h-9.4V74.5z M50.2,4C24.3,4,3.4,25,3.4,51s21,47,46.8,47
	S97,77,97,51S76,4,50.2,4z M50.2,88.6c-20.7,0-37.5-16.8-37.5-37.6s16.8-37.6,37.5-37.6S87.6,30.2,87.6,51
	C87.6,71.8,70.9,88.6,50.2,88.6z M45.5,36.9h9.4v-9.4h-9.4V36.9z"/>
</svg>
