<svg id="Layer_1" data-name="Layer 1" xmlns="http://www.w3.org/2000/svg" viewBox="0 0 110 110"><defs><style>.cls-1{fill:none;stroke:#404141;stroke-miterlimit:10;stroke-width:3px;}</style></defs><title>Artboard 1</title><path class="cls-1" d="M18.46,17.81a52.38,52.38,0,1,1,0,74.07A52.38,52.38,0,0,1,18.46,17.81ZM83,27.39a38.83,38.83,0,0,0-54.91,0m45.41,9.5a25.39,25.39,0,0,0-35.91,0L5.15,69.29M28,27.39,3.19,52.24M28,82.3A38.83,38.83,0,0,0,83,82.3M37.54,72.8a25.39,25.39,0,0,0,35.91,0l32.4-32.4M83,82.3l24.86-24.86"/></svg>